<svg xmlns="http://www.w3.org/2000/svg" xmlns:xlink="http://www.w3.org/1999/xlink" class="svg-sprite"><defs><path id="w55ba" d="M1168.46 32.4v.26c0 .03-.02.06-.03.08a1 1 0 0 1-.55.7c-.3.15-.61.24-.93.32-.96.22-1.93.33-2.9.41-1.42.13-2.85.17-4.27.16-.95-.01-1.9-.05-2.86-.1a24.68 24.68 0 0 1-3.41-.37 5.57 5.57 0 0 1-1.27-.36c-.23-.1-.44-.23-.55-.46-.07-.12-.1-.25-.15-.38v-.26l.02-.05c.05-.24.18-.43.36-.6.3-.29.62-.57.88-.9a6.93 6.93 0 0 0 1.63-4.52l.01-3.22a5.51 5.51 0 0 1 3.9-5.15c.07-.03.1-.05.1-.12v-.6c.01-.63.32-1.08.9-1.35.13-.07.28-.09.42-.13h.34l.08.02c.63.1 1.14.61 1.22 1.26.03.24.02.5.02.75 0 .07.02.1.1.12a5.56 5.56 0 0 1 4.04 5.35v1.98c0 .58 0 1.16.04 1.74.05.81.27 1.59.6 2.32.45.97 1.1 1.8 1.91 2.49.13.1.22.23.28.38l.07.23zm-8-14.68v-.48a.53.53 0 0 0-.5-.51.51.51 0 0 0-.55.41c-.02.2 0 .4 0 .58h1.05zm-.7 18.52l-.25-.06a1.5 1.5 0 0 1-1.07-1.3v-.1h2.99c-.02.12-.03.24-.06.35-.18.6-.58.96-1.2 1.09l-.07.02h-.34z"/><path id="sw2wa" d="M46.78 193.28h12.08c.05 0 .1.02.14.03.73.11 1.21.65 1.27 1.38.02.29.01.58.01.87v.08h.73c.13 0 .25 0 .37.03.43.08.77.28 1.01.65.18.29.25.6.25.94v14.8c0 .11 0 .23-.02.35-.06.37-.21.7-.5.94-.31.26-.67.37-1.07.37H49.3c-.14 0-.3-.02-.43-.05-.7-.17-1.09-.7-1.15-1.33-.02-.3 0-.6-.01-.9v-.08h-.49c-.2 0-.4 0-.6-.03a1.42 1.42 0 0 1-1.01-.65c-.19-.28-.26-.59-.26-.92v-14.85l.02-.33c.09-.62.52-1.1 1.13-1.25l.27-.05zm.15 16.5h11.78v-.1-3.3-3.32c0-1.1.01-2.2 0-3.31 0-1.1.04-2.21-.03-3.31 0-.1.03-.21.03-.32v-1.2-.06H46.93v14.93zm13.35-12.57v12.5c0 .12 0 .24-.02.36-.07.42-.26.77-.62 1.02-.3.2-.61.27-.96.27H49.3v.78h11.77v-14.93h-.78zm-6.74 3.15h3.6v3.6l-1.22-1.24-2.7 2.69-2.37-2.35-1.78 1.78-1.13-1.13 2.92-2.9 2.35 2.33 1.57-1.57-1.24-1.21z"/><path id="x926a" d="M59.65 152.76h.88l.36.05a6.15 6.15 0 0 1 5.21 4.77c.07.3.1.6.15.9v.88c0 .06-.03.11-.03.17a6.02 6.02 0 0 1-2.84 4.57c-.16.1-.2.2-.2.38v5.68a3 3 0 0 1-3.08 3.08H48.86a3 3 0 0 1-3.08-3.1v-8.1c0-.7.37-1.08 1.08-1.08h3.01v-.25-3.72c0-.75.4-1.15 1.15-1.15h3.56c.15 0 .23-.05.32-.17a6.24 6.24 0 0 1 3.76-2.73c.32-.08.66-.12 1-.18zm-8.94 19.44H60.15c.6-.03 1.85-.6 1.85-1.2v-6c0-.18-.86.15-.86-.03a6.08 6.08 0 0 1-5.36-1.73c-1.48-1.48-2.3-3.31-1.78-6.24h-3l-.08 2.17v11.63c-.01.37-.1.73-.14 1.09l-.07.3zm9.44-9.2c.88 0 1.58-.2 2.23-.69 1.34-1 2.03-2.33 1.78-4.02a4.06 4.06 0 0 0-4.5-3.45c-2 .21-3.3 1.8-3.59 3.41a4.08 4.08 0 0 0 4.08 4.75zM47 162v8c0 .56-.22 2.14 2 2 .75.17.87-1.1.87-1.89v-6.91c0-.06.14-1.13.13-1.2h-3zm14.13-2.04v.95c0 .74-.54 1.18-1.27 1.04a.94.94 0 0 1-.76-.92l-.01-1.04-.02-.07h-.68c-.2 0-.38.01-.56-.02-.54-.1-.83-.54-.78-1.15.05-.5.43-.85.96-.86h1.08v-.7-.4c.02-.56.42-.94 1-.95.6 0 1.02.36 1.04.94v1.1h.99c.76 0 1.21.6 1.02 1.33a.92.92 0 0 1-.9.7c-.36.02-.71.02-1.07.02l-.04.03z"/><path id="sygna" d="M1208.45 23.63c0 1.54-.04 3.08.02 4.62.03.81-.28 1.36-.9 1.84a6.7 6.7 0 0 1-8.9-.4 4.1 4.1 0 0 0-4.12-1.12c-.45.12-.85.4-1.28.6-.16.08-.18.2-.18.37v5.45c0 .49-.13.9-.55 1.19-.4.27-.84.3-1.28.09-.4-.2-.65-.53-.7-1a4.04 4.04 0 0 1-.01-.39c0-5.3.02-10.6-.02-15.89 0-.87.3-1.46.96-1.95a6.69 6.69 0 0 1 8.87.48 4.13 4.13 0 0 0 5.87.08c.52-.48 1.08-.55 1.66-.19.3.2.49.48.54.84.02.16.02.31.02.47v4.91z"/>
    <path id="9zs5a" d="M1403.65 32.6c-.44-.3-.74-.54-1.08-.7-.4-.17-.93-.46-1.23-.32-.31.14-.56.72-.6 1.13-.11 1.06-.37 1.35-1.47 1.36-1.66.01-1.71-.06-1.93-1.68a1.28 1.28 0 0 0-.64-.86c-.25-.11-.72.01-.97.2-1.2.9-2.61.55-3.05-.89-.11-.35.14-.9.37-1.26.28-.42.71-.73.45-1.32-.25-.58-.73-.6-1.26-.61-.96-.02-1.3-.38-1.31-1.34v-.76c.03-.85.38-1.21 1.24-1.23.55-.02 1.2.01 1.3-.64.06-.4-.2-.93-.47-1.28-.55-.73-.58-1.17.07-1.83l.6-.6c.63-.57 1.1-.52 1.78-.02.36.27.88.53 1.29.48.65-.09.62-.74.64-1.29.03-.9.4-1.22 1.33-1.24h.75c.88.02 1.24.35 1.25 1.22.01.55.02 1.07.63 1.34.63.28 1-.13 1.38-.5.57-.56 1.14-.55 1.7 0 .25.22.49.46.72.7.57.62.58 1.08-.02 1.68-.4.4-.75.79-.5 1.39.24.57.75.58 1.28.59.84.01 1.16.34 1.2 1.17v.92c-.03.89-.35 1.23-1.22 1.24-.53 0-1.04.03-1.27.6-.23.56.08.95.46 1.33.65.66.65 1.13-.02 1.8-.42.41-.89.78-1.4 1.22zm-1.24-6.61a3.35 3.35 0 0 0-3.35-3.37 3.4 3.4 0 0 0-3.39 3.36 3.4 3.4 0 0 0 3.37 3.37c1.87 0 3.36-1.5 3.37-3.36z"/>
  <path id="yenma" d="M53.24 234.76h1.52l.67.1c2.36.34 4.37 1.37 6.02 3.1a10.01 10.01 0 0 1 2.63 5.22l.16 1.06v1.52l-.1.67a10.12 10.12 0 0 1-3.1 6.02 10.01 10.01 0 0 1-5.22 2.63l-1.06.16h-1.52l-.67-.1a10.12 10.12 0 0 1-6.02-3.1 10.01 10.01 0 0 1-2.63-5.22l-.16-1.06v-1.52l.1-.67a10.12 10.12 0 0 1 3.1-6.02 10.01 10.01 0 0 1 5.22-2.63l1.06-.16zm9.71 10.25a8.96 8.96 0 1 0-9.13 8.94 8.97 8.97 0 0 0 9.13-8.94zm-8.34 4.96v1.42H53.4v-1.42c-1.68-.18-2.59-1.18-2.96-2.78l1.87-.49c.06.19.1.36.16.52a1.68 1.68 0 0 0 2.32.92c.4-.2.57-.55.59-.98.01-.41-.16-.73-.53-.9-.38-.19-.77-.34-1.16-.5-.45-.19-.9-.35-1.35-.56a2.58 2.58 0 0 1-1.54-2.44c-.01-1.15.38-2.11 1.44-2.69.34-.18.74-.27 1.15-.41v-1.04h1.21v1.09c1.4.17 2.26.97 2.65 2.31l-1.67.69c-.03-.08-.06-.15-.1-.21-.14-.26-.26-.53-.45-.75-.48-.57-1.36-.6-1.83-.1-.36.4-.44 1.24.25 1.56.52.24 1.07.44 1.6.67.34.15.68.3 1.01.47a2.71 2.71 0 0 1 1.48 2.8c-.17 1.58-1.12 2.55-2.7 2.78-.08 0-.15.02-.23.04z"/><path id="gka9a" d="M1110.74 23.01c2.77 2.13 5.73 3.99 8.54 6.05.74.53 1.58.91 2.5.96.95.06 1.8-.32 2.56-.82 1-.64 1.96-1.37 2.94-2.05 1.59-1.1 3.18-2.19 4.76-3.3.38-.26.7-.58 1.06-.88l.01.23v9.52c0 1.26-.84 2.1-2.1 2.1h-18.17a2 2 0 0 1-2.1-2.09v-9.52-.2zm11.17-5.78h9.22c1.12 0 2 .92 1.98 2.04 0 .62-.19 1.18-.51 1.7-.44.7-1 1.26-1.68 1.73l-6.9 4.8c-.3.22-.63.41-.96.6-.75.44-1.53.46-2.27 0a61.48 61.48 0 0 1-2.4-1.62c-1.87-1.29-3.73-2.58-5.6-3.9a5.56 5.56 0 0 1-1.82-2.13 2.4 2.4 0 0 1 .02-2.13c.33-.71.9-1.08 1.68-1.08h9.24z"/><path id="p4pja" d="M57.04 372.92v-.21l.01-9.11v-1.38c0-.3-.12-.51-.39-.65l-6.4-3.36-3.44-1.8-.16-.09 1-.5.84-.44a.24.24 0 0 1 .25 0l6.48 3.4 1.73.9 1.5.79c.28.14.4.36.4.67v2.9l-.01 7.79c0 .11-.03.18-.14.24l-1.67.85zm-10.5-15.85l-2.97 1.51.86.44 7.01 3.58c.48.24.96.5 1.43.75.15.08.25 0 .35-.06l.92-.47.64-.32 1-.53a.15.15 0 0 1 .1-.01c.18.05.35.22.42.43l-.96.5-1.95.98c-.1.05-.09.12-.09.2v10.07l3.02-1.54v.64c0 .03-.07.08-.1.1l-2.44 1.24-.6.3a.36.36 0 0 1-.35.01l-3.92-2-3.74-1.9-2.39-1.22c-.13-.07-.19-.18-.19-.33v-1.57-9.2c0-.2.07-.31.25-.4l2.93-1.5c.08-.04.14-.04.23 0l.54.3zm6.16 17.07V374v-9.78c0-.23-.05-.34-.27-.45-.9-.43-1.79-.9-2.68-1.35l-6.27-3.2-.28-.14v10.06c0 .12.03.18.13.23l2.22 1.12 5.01 2.56 2.14 1.1zm6.86-2.51v-.6c0-.04.06-.1.1-.13l2.97-1.51c.13-.07.18-.14.18-.3v-9.84-.17l-3.2 1.62c-.06-.2-.13-.37-.21-.57l3.03-1.54-.17-.1-6.42-3.27-2.73-1.4a.21.21 0 0 0-.22 0l-2.72 1.4c-.08.03-.13.04-.2 0l-.56-.3.64-.33 2.76-1.4a.39.39 0 0 1 .38 0l5.73 2.92 4.24 2.16c.18.09.25.21.25.41v10.7c0 .2-.07.33-.25.42l-3.5 1.78-.1.05zm-7.81.96l-1.34-.68-4.05-2.07-2.1-1.07c-.07-.03-.11-.07-.11-.15v-7.92-.05c.04 0 .08.01.1.03l4.97 2.53 2.41 1.23c.1.05.12.1.12.2v7.95zm-.5-.8l.01-.13v-6.76c0-.08-.01-.12-.09-.16l-1.33-.67-4.33-2.2-.87-.45v.13l-.01 6.75c0 .1.04.14.12.19l2.01 1.02 3.51 1.79.99.5zm-1.41-2.31l-.32-.16-3.35-1.71c-.05-.03-.1-.1-.1-.15v-3.64-.06l.11.04 3.5 1.79c.13.06.17.13.17.26v3.5l-.01.13z"/></defs><symbol id="icon-alarm" viewBox="0 0 18 22"><g><g transform="translate(-1151 -15)"><use fill="#fff" xlink:href="#w55ba"/></g></g></symbol><symbol id="icon-arrow-up" viewBox="0 0 23 14">
  <path d="M 1 13
           L 11 2 L 22 13" stroke-width="1" stroke="#d3d6df" fill="none">
  </path>

</symbol><symbol id="icon-choose" viewBox="0 0 18 21"><g><g transform="translate(-45 -193)"><use xlink:href="#sw2wa"/></g></g></symbol><symbol id="icon-clients" viewBox="0 0 349.667 349.667">
<g>
	<path d="M174.833,197.204c24.125,0,80.846-29.034,80.846-98.603C255.68,44.145,248.329,0,174.833,0
		c-73.495,0-80.846,44.145-80.846,98.602C93.987,168.17,150.708,197.204,174.833,197.204z M106.07,82.146
		c5.679-10.983,17.963-23.675,44.381-23.112c0,0,15.746,38.194,93.05,21.042c0.312,6.101,0.41,12.326,0.41,18.526
		c0,34.005-15.015,55.075-27.612,66.762c-15.872,14.727-33.494,20.072-41.466,20.072c-7.972,0-25.594-5.345-41.466-20.072
		c-12.597-11.687-27.612-32.757-27.612-66.762C105.756,93.101,105.836,87.581,106.07,82.146z"/>
	<path d="M324.926,298.327c-4.127-25.665-12.625-58.724-29.668-70.472c-11.638-8.024-52.243-29.718-69.582-38.982l-0.3-0.16
		c-1.982-1.059-4.402-0.847-6.17,0.541c-9.083,7.131-19.033,11.937-29.573,14.284c-1.862,0.415-3.39,1.738-4.067,3.521
		l-10.733,28.291l-10.733-28.291c-0.677-1.783-2.205-3.106-4.067-3.521c-10.54-2.347-20.49-7.153-29.573-14.284
		c-1.768-1.388-4.188-1.601-6.17-0.541c-17.133,9.155-58.235,31.291-69.831,39.107c-19.619,13.217-28.198,61.052-29.718,70.507
		c-0.151,0.938-0.063,1.897,0.253,2.792c0.702,1.982,18.708,48.548,149.839,48.548s149.137-46.566,149.839-48.548
		C324.989,300.224,325.077,299.264,324.926,298.327z M264.5,282.666l-25.667,8l-25.667-8v-13.81H264.5V282.666z"/>
</g>
<g>
</g>
<g>
</g>
<g>
</g>
<g>
</g>
<g>
</g>
<g>
</g>
<g>
</g>
<g>
</g>
<g>
</g>
<g>
</g>
<g>
</g>
<g>
</g>
<g>
</g>
<g>
</g>
<g>
</g>
</symbol><symbol id="icon-create" viewBox="0 0 22 22"><g><g transform="translate(-45 -152)"><use xlink:href="#x926a"/></g></g></symbol><symbol id="icon-flag" viewBox="0 0 19 22"><g><g transform="translate(-1190 -15)"><use fill="#fff" xlink:href="#sygna"/></g></g></symbol><symbol id="icon-gear" viewBox="0 0 16 16">
  
  <g>
    <g transform="translate(-1391 -18)">
      <use fill="#fff" xlink:href="#9zs5a"/>
    </g>
  </g>
</symbol><symbol id="icon-invoice" viewBox="0 0 22 22"><g><g transform="translate(-43 -234)"><use xlink:href="#yenma"/></g></g></symbol><symbol id="icon-mail" viewBox="0 0 23 18"><g><g transform="translate(-1110 -17)"><use fill="#fff" xlink:href="#gka9a"/></g></g></symbol><symbol id="icon-rest" viewBox="0 0 510 510">
<g>
	<g id="shopping-cart">
		<path d="M153,408c-28.05,0-51,22.95-51,51s22.95,51,51,51s51-22.95,51-51S181.05,408,153,408z M0,0v51h51l91.8,193.8L107.1,306
			c-2.55,7.65-5.1,17.85-5.1,25.5c0,28.05,22.95,51,51,51h306v-51H163.2c-2.55,0-5.1-2.55-5.1-5.1v-2.551l22.95-43.35h188.7
			c20.4,0,35.7-10.2,43.35-25.5L504.9,89.25c5.1-5.1,5.1-7.65,5.1-12.75c0-15.3-10.2-25.5-25.5-25.5H107.1L84.15,0H0z M408,408
			c-28.05,0-51,22.95-51,51s22.95,51,51,51s51-22.95,51-51S436.05,408,408,408z"/>
	</g>
</g>
<g>
</g>
<g>
</g>
<g>
</g>
<g>
</g>
<g>
</g>
<g>
</g>
<g>
</g>
<g>
</g>
<g>
</g>
<g>
</g>
<g>
</g>
<g>
</g>
<g>
</g>
<g>
</g>
<g>
</g>
</symbol><symbol id="icon-warehouse" viewBox="0 0 22 22"><g><g transform="translate(-42 -353)"><use xlink:href="#p4pja"/></g></g></symbol></svg>