<svg xmlns="http://www.w3.org/2000/svg" xmlns:xlink="http://www.w3.org/1999/xlink" width="18" height="21" viewBox="0 0 18 21"><defs><path id="sw2wa" d="M46.78 193.28h12.08c.05 0 .1.02.14.03.73.11 1.21.65 1.27 1.38.02.29.01.58.01.87v.08h.73c.13 0 .25 0 .37.03.43.08.77.28 1.01.65.18.29.25.6.25.94v14.8c0 .11 0 .23-.02.35-.06.37-.21.7-.5.94-.31.26-.67.37-1.07.37H49.3c-.14 0-.3-.02-.43-.05-.7-.17-1.09-.7-1.15-1.33-.02-.3 0-.6-.01-.9v-.08h-.49c-.2 0-.4 0-.6-.03a1.42 1.42 0 0 1-1.01-.65c-.19-.28-.26-.59-.26-.92v-14.85l.02-.33c.09-.62.52-1.1 1.13-1.25l.27-.05zm.15 16.5h11.78v-.1-3.3-3.32c0-1.1.01-2.2 0-3.31 0-1.1.04-2.21-.03-3.31 0-.1.03-.21.03-.32v-1.2-.06H46.93v14.93zm13.35-12.57v12.5c0 .12 0 .24-.02.36-.07.42-.26.77-.62 1.02-.3.2-.61.27-.96.27H49.3v.78h11.77v-14.93h-.78zm-6.74 3.15h3.6v3.6l-1.22-1.24-2.7 2.69-2.37-2.35-1.78 1.78-1.13-1.13 2.92-2.9 2.35 2.33 1.57-1.57-1.24-1.21z"/></defs><g><g transform="translate(-45 -193)"><use xlink:href="#sw2wa"/></g></g></svg>
