<svg xmlns="http://www.w3.org/2000/svg" xmlns:xlink="http://www.w3.org/1999/xlink" width="18" height="22" viewBox="0 0 18 22"><defs><path id="w55ba" d="M1168.46 32.4v.26c0 .03-.02.06-.03.08a1 1 0 0 1-.55.7c-.3.15-.61.24-.93.32-.96.22-1.93.33-2.9.41-1.42.13-2.85.17-4.27.16-.95-.01-1.9-.05-2.86-.1a24.68 24.68 0 0 1-3.41-.37 5.57 5.57 0 0 1-1.27-.36c-.23-.1-.44-.23-.55-.46-.07-.12-.1-.25-.15-.38v-.26l.02-.05c.05-.24.18-.43.36-.6.3-.29.62-.57.88-.9a6.93 6.93 0 0 0 1.63-4.52l.01-3.22a5.51 5.51 0 0 1 3.9-5.15c.07-.03.1-.05.1-.12v-.6c.01-.63.32-1.08.9-1.35.13-.07.28-.09.42-.13h.34l.08.02c.63.1 1.14.61 1.22 1.26.03.24.02.5.02.75 0 .07.02.1.1.12a5.56 5.56 0 0 1 4.04 5.35v1.98c0 .58 0 1.16.04 1.74.05.81.27 1.59.6 2.32.45.97 1.1 1.8 1.91 2.49.13.1.22.23.28.38l.07.23zm-8-14.68v-.48a.53.53 0 0 0-.5-.51.51.51 0 0 0-.55.41c-.02.2 0 .4 0 .58h1.05zm-.7 18.52l-.25-.06a1.5 1.5 0 0 1-1.07-1.3v-.1h2.99c-.02.12-.03.24-.06.35-.18.6-.58.96-1.2 1.09l-.07.02h-.34z"/></defs><g><g transform="translate(-1151 -15)"><use fill="#fff" xlink:href="#w55ba"/></g></g></svg>