<svg xmlns="http://www.w3.org/2000/svg" xmlns:xlink="http://www.w3.org/1999/xlink" width="22" height="22" viewBox="0 0 22 22"><defs><path id="x926a" d="M59.65 152.76h.88l.36.05a6.15 6.15 0 0 1 5.21 4.77c.07.3.1.6.15.9v.88c0 .06-.03.11-.03.17a6.02 6.02 0 0 1-2.84 4.57c-.16.1-.2.2-.2.38v5.68a3 3 0 0 1-3.08 3.08H48.86a3 3 0 0 1-3.08-3.1v-8.1c0-.7.37-1.08 1.08-1.08h3.01v-.25-3.72c0-.75.4-1.15 1.15-1.15h3.56c.15 0 .23-.05.32-.17a6.24 6.24 0 0 1 3.76-2.73c.32-.08.66-.12 1-.18zm-8.94 19.44H60.15c.6-.03 1.85-.6 1.85-1.2v-6c0-.18-.86.15-.86-.03a6.08 6.08 0 0 1-5.36-1.73c-1.48-1.48-2.3-3.31-1.78-6.24h-3l-.08 2.17v11.63c-.01.37-.1.73-.14 1.09l-.07.3zm9.44-9.2c.88 0 1.58-.2 2.23-.69 1.34-1 2.03-2.33 1.78-4.02a4.06 4.06 0 0 0-4.5-3.45c-2 .21-3.3 1.8-3.59 3.41a4.08 4.08 0 0 0 4.08 4.75zM47 162v8c0 .56-.22 2.14 2 2 .75.17.87-1.1.87-1.89v-6.91c0-.06.14-1.13.13-1.2h-3zm14.13-2.04v.95c0 .74-.54 1.18-1.27 1.04a.94.94 0 0 1-.76-.92l-.01-1.04-.02-.07h-.68c-.2 0-.38.01-.56-.02-.54-.1-.83-.54-.78-1.15.05-.5.43-.85.96-.86h1.08v-.7-.4c.02-.56.42-.94 1-.95.6 0 1.02.36 1.04.94v1.1h.99c.76 0 1.21.6 1.02 1.33a.92.92 0 0 1-.9.7c-.36.02-.71.02-1.07.02l-.04.03z"/></defs><g><g transform="translate(-45 -152)"><use xlink:href="#x926a"/></g></g></svg>
