<svg xmlns="http://www.w3.org/2000/svg" xmlns:xlink="http://www.w3.org/1999/xlink" width="22" height="22" viewBox="0 0 22 22"><defs><path id="yenma" d="M53.24 234.76h1.52l.67.1c2.36.34 4.37 1.37 6.02 3.1a10.01 10.01 0 0 1 2.63 5.22l.16 1.06v1.52l-.1.67a10.12 10.12 0 0 1-3.1 6.02 10.01 10.01 0 0 1-5.22 2.63l-1.06.16h-1.52l-.67-.1a10.12 10.12 0 0 1-6.02-3.1 10.01 10.01 0 0 1-2.63-5.22l-.16-1.06v-1.52l.1-.67a10.12 10.12 0 0 1 3.1-6.02 10.01 10.01 0 0 1 5.22-2.63l1.06-.16zm9.71 10.25a8.96 8.96 0 1 0-9.13 8.94 8.97 8.97 0 0 0 9.13-8.94zm-8.34 4.96v1.42H53.4v-1.42c-1.68-.18-2.59-1.18-2.96-2.78l1.87-.49c.06.19.1.36.16.52a1.68 1.68 0 0 0 2.32.92c.4-.2.57-.55.59-.98.01-.41-.16-.73-.53-.9-.38-.19-.77-.34-1.16-.5-.45-.19-.9-.35-1.35-.56a2.58 2.58 0 0 1-1.54-2.44c-.01-1.15.38-2.11 1.44-2.69.34-.18.74-.27 1.15-.41v-1.04h1.21v1.09c1.4.17 2.26.97 2.65 2.31l-1.67.69c-.03-.08-.06-.15-.1-.21-.14-.26-.26-.53-.45-.75-.48-.57-1.36-.6-1.83-.1-.36.4-.44 1.24.25 1.56.52.24 1.07.44 1.6.67.34.15.68.3 1.01.47a2.71 2.71 0 0 1 1.48 2.8c-.17 1.58-1.12 2.55-2.7 2.78-.08 0-.15.02-.23.04z"/></defs><g><g transform="translate(-43 -234)"><use xlink:href="#yenma"/></g></g></svg>
