<svg xmlns="http://www.w3.org/2000/svg" xmlns:xlink="http://www.w3.org/1999/xlink" width="23" height="18" viewBox="0 0 23 18"><defs><path id="gka9a" d="M1110.74 23.01c2.77 2.13 5.73 3.99 8.54 6.05.74.53 1.58.91 2.5.96.95.06 1.8-.32 2.56-.82 1-.64 1.96-1.37 2.94-2.05 1.59-1.1 3.18-2.19 4.76-3.3.38-.26.7-.58 1.06-.88l.01.23v9.52c0 1.26-.84 2.1-2.1 2.1h-18.17a2 2 0 0 1-2.1-2.09v-9.52-.2zm11.17-5.78h9.22c1.12 0 2 .92 1.98 2.04 0 .62-.19 1.18-.51 1.7-.44.7-1 1.26-1.68 1.73l-6.9 4.8c-.3.22-.63.41-.96.6-.75.44-1.53.46-2.27 0a61.48 61.48 0 0 1-2.4-1.62c-1.87-1.29-3.73-2.58-5.6-3.9a5.56 5.56 0 0 1-1.82-2.13 2.4 2.4 0 0 1 .02-2.13c.33-.71.9-1.08 1.68-1.08h9.24z"/></defs><g><g transform="translate(-1110 -17)"><use fill="#fff" xlink:href="#gka9a"/></g></g></svg>