<svg xmlns="http://www.w3.org/2000/svg" xmlns:xlink="http://www.w3.org/1999/xlink" width="16" height="16" viewBox="0 0 16 16">
  <defs>
    <path id="9zs5a" d="M1403.65 32.6c-.44-.3-.74-.54-1.08-.7-.4-.17-.93-.46-1.23-.32-.31.14-.56.72-.6 1.13-.11 1.06-.37 1.35-1.47 1.36-1.66.01-1.71-.06-1.93-1.68a1.28 1.28 0 0 0-.64-.86c-.25-.11-.72.01-.97.2-1.2.9-2.61.55-3.05-.89-.11-.35.14-.9.37-1.26.28-.42.71-.73.45-1.32-.25-.58-.73-.6-1.26-.61-.96-.02-1.3-.38-1.31-1.34v-.76c.03-.85.38-1.21 1.24-1.23.55-.02 1.2.01 1.3-.64.06-.4-.2-.93-.47-1.28-.55-.73-.58-1.17.07-1.83l.6-.6c.63-.57 1.1-.52 1.78-.02.36.27.88.53 1.29.48.65-.09.62-.74.64-1.29.03-.9.4-1.22 1.33-1.24h.75c.88.02 1.24.35 1.25 1.22.01.55.02 1.07.63 1.34.63.28 1-.13 1.38-.5.57-.56 1.14-.55 1.7 0 .25.22.49.46.72.7.57.62.58 1.08-.02 1.68-.4.4-.75.79-.5 1.39.24.57.75.58 1.28.59.84.01 1.16.34 1.2 1.17v.92c-.03.89-.35 1.23-1.22 1.24-.53 0-1.04.03-1.27.6-.23.56.08.95.46 1.33.65.66.65 1.13-.02 1.8-.42.41-.89.78-1.4 1.22zm-1.24-6.61a3.35 3.35 0 0 0-3.35-3.37 3.4 3.4 0 0 0-3.39 3.36 3.4 3.4 0 0 0 3.37 3.37c1.87 0 3.36-1.5 3.37-3.36z"/>
  </defs>
  <g>
    <g transform="translate(-1391 -18)">
      <use fill="#fff" xlink:href="#9zs5a"/>
    </g>
  </g>
</svg>
