<svg xmlns="http://www.w3.org/2000/svg" xmlns:xlink="http://www.w3.org/1999/xlink" width="22" height="22" viewBox="0 0 22 22"><defs><path id="p4pja" d="M57.04 372.92v-.21l.01-9.11v-1.38c0-.3-.12-.51-.39-.65l-6.4-3.36-3.44-1.8-.16-.09 1-.5.84-.44a.24.24 0 0 1 .25 0l6.48 3.4 1.73.9 1.5.79c.28.14.4.36.4.67v2.9l-.01 7.79c0 .11-.03.18-.14.24l-1.67.85zm-10.5-15.85l-2.97 1.51.86.44 7.01 3.58c.48.24.96.5 1.43.75.15.08.25 0 .35-.06l.92-.47.64-.32 1-.53a.15.15 0 0 1 .1-.01c.18.05.35.22.42.43l-.96.5-1.95.98c-.1.05-.09.12-.09.2v10.07l3.02-1.54v.64c0 .03-.07.08-.1.1l-2.44 1.24-.6.3a.36.36 0 0 1-.35.01l-3.92-2-3.74-1.9-2.39-1.22c-.13-.07-.19-.18-.19-.33v-1.57-9.2c0-.2.07-.31.25-.4l2.93-1.5c.08-.04.14-.04.23 0l.54.3zm6.16 17.07V374v-9.78c0-.23-.05-.34-.27-.45-.9-.43-1.79-.9-2.68-1.35l-6.27-3.2-.28-.14v10.06c0 .12.03.18.13.23l2.22 1.12 5.01 2.56 2.14 1.1zm6.86-2.51v-.6c0-.04.06-.1.1-.13l2.97-1.51c.13-.07.18-.14.18-.3v-9.84-.17l-3.2 1.62c-.06-.2-.13-.37-.21-.57l3.03-1.54-.17-.1-6.42-3.27-2.73-1.4a.21.21 0 0 0-.22 0l-2.72 1.4c-.08.03-.13.04-.2 0l-.56-.3.64-.33 2.76-1.4a.39.39 0 0 1 .38 0l5.73 2.92 4.24 2.16c.18.09.25.21.25.41v10.7c0 .2-.07.33-.25.42l-3.5 1.78-.1.05zm-7.81.96l-1.34-.68-4.05-2.07-2.1-1.07c-.07-.03-.11-.07-.11-.15v-7.92-.05c.04 0 .08.01.1.03l4.97 2.53 2.41 1.23c.1.05.12.1.12.2v7.95zm-.5-.8l.01-.13v-6.76c0-.08-.01-.12-.09-.16l-1.33-.67-4.33-2.2-.87-.45v.13l-.01 6.75c0 .1.04.14.12.19l2.01 1.02 3.51 1.79.99.5zm-1.41-2.31l-.32-.16-3.35-1.71c-.05-.03-.1-.1-.1-.15v-3.64-.06l.11.04 3.5 1.79c.13.06.17.13.17.26v3.5l-.01.13z"/></defs><g><g transform="translate(-42 -353)"><use xlink:href="#p4pja"/></g></g></svg>
