<svg xmlns="http://www.w3.org/2000/svg" xmlns:xlink="http://www.w3.org/1999/xlink" width="19" height="22" viewBox="0 0 19 22"><defs><path id="sygna" d="M1208.45 23.63c0 1.54-.04 3.08.02 4.62.03.81-.28 1.36-.9 1.84a6.7 6.7 0 0 1-8.9-.4 4.1 4.1 0 0 0-4.12-1.12c-.45.12-.85.4-1.28.6-.16.08-.18.2-.18.37v5.45c0 .49-.13.9-.55 1.19-.4.27-.84.3-1.28.09-.4-.2-.65-.53-.7-1a4.04 4.04 0 0 1-.01-.39c0-5.3.02-10.6-.02-15.89 0-.87.3-1.46.96-1.95a6.69 6.69 0 0 1 8.87.48 4.13 4.13 0 0 0 5.87.08c.52-.48 1.08-.55 1.66-.19.3.2.49.48.54.84.02.16.02.31.02.47v4.91z"/></defs><g><g transform="translate(-1190 -15)"><use fill="#fff" xlink:href="#sygna"/></g></g></svg>