<svg xmlns="http://www.w3.org/2000/svg" xmlns:xlink="http://www.w3.org/1999/xlink" width="17" height="15" viewBox="0 0 17 15"><defs><path id="3hyea" d="M855.24 661.45c-.1-1.88-.43-3.18-.45-4.14-.03-1.07.7-1.84 1.7-1.85 1.05 0 1.8.74 1.75 1.84-.1 2.25-.41 3.55-.44 4.15.5 0 1-.03 1.47 0 .2.02.48.12.56.27.08.14.01.45-.1.6-.87 1.1-1.75 2.17-2.65 3.23-.37.43-.77.44-1.12.02a119.3 119.3 0 0 1-2.65-3.24c-.11-.15-.2-.47-.11-.6.1-.15.38-.25.6-.27.45-.04.9-.01 1.44-.01zm7.1 6.14v-1.84c.01-.54.18-.71.72-.73h.53c.58.01.74.17.74.75v3.14c0 .59-.12.72-.7.72h-14.21c-.59 0-.72-.13-.72-.7v-3.2c0-.54.17-.7.72-.71h.53c.57.01.73.18.73.76v1.8h11.66z"/></defs><g><g transform="translate(-848 -655)"><use fill="#fff" xlink:href="#3hyea"/></g></g></svg>