<svg xmlns="http://www.w3.org/2000/svg" xmlns:xlink="http://www.w3.org/1999/xlink" width="20" height="20" viewBox="0 0 20 20"><defs><path id="b4ria" d="M700.61 1084.3c.1-.27.17-.56.32-.8.35-.56.88-.87 1.54-.9.36-.03.73 0 1.1 0v1.96h-.97v12.84h14.8v-12.83h-.97v-1.96l.02-.01c.42 0 .84-.04 1.24.02.9.13 1.49.73 1.67 1.61 0 .03.02.05.03.07v13.38c-.01.03-.03.06-.03.1a1.92 1.92 0 0 1-.95 1.33c-.22.12-.49.19-.73.28h-15.36c-.03-.01-.06-.03-.1-.03a1.93 1.93 0 0 1-1.34-.97c-.13-.22-.18-.47-.27-.71v-13.38zm5.13-3.69c.15.08.32.14.45.25.25.2.35.47.35.78v1.9c-.01.81-.8 1.27-1.49.88a.88.88 0 0 1-.48-.77v-2.08c0-.43.28-.78.69-.9l.12-.06h.36zm8.88 0c.18.1.38.18.53.31.21.18.29.44.28.72v1.89a1 1 0 0 1-.98 1.03 1 1 0 0 1-.99-1v-1.95c0-.46.26-.8.7-.95l.1-.05h.36zm-7.08 3.95v-1.96h4.92v1.96h-4.92zm-2.97 9.87a1 1 0 0 1 1-.97 1 1 0 0 1 .97 1 .99.99 0 1 1-1.97-.02zm3.92-1.96a.98.98 0 0 1 .04-1.97c.55.01.98.46.97 1 0 .54-.46.98-1 .97zm2.99-4.94a.98.98 0 1 1 0 1.97 1 1 0 0 1-.98-.98c0-.54.44-.98.98-.99zm2.97 0a.98.98 0 1 1 0 1.97 1 1 0 0 1-1-.99 1 1 0 0 1 1-.98zm-5.94 0c.54 0 .99.44 1 .98a1 1 0 0 1-1 1 .99.99 0 0 1 0-1.97zm2.96 4.94a.99.99 0 0 1-.97-1 .99.99 0 1 1 .97 1zm-3.94 1.98a1 1 0 0 1 .98-1 1 1 0 0 1 1 1 .99.99 0 0 1-1.97 0zm-1.99-1.98a.99.99 0 1 1 .02-1.97.99.99 0 0 1-.02 1.97zm8.9 0a1 1 0 0 1-.98-.99 1 1 0 0 1 .99-.98c.54 0 .98.44.98 1 0 .53-.44.97-.99.97zm-8.87-4.94a1 1 0 0 1 .97 1 1 1 0 0 1-1 .97.98.98 0 0 1 .03-1.97z"/></defs><g><g transform="translate(-700 -1080)"><use fill="#575757" xlink:href="#b4ria"/></g></g></svg>
