<svg xmlns="http://www.w3.org/2000/svg" xmlns:xlink="http://www.w3.org/1999/xlink" width="24" height="21" viewBox="0 0 24 21"><defs><path id="m032a" d="M1103.18 460.86h-9.66c-.8 0-1.02-.22-1.02-1.04v-15.3c0-.83.23-1.07 1.05-1.07h4.34c.27.01.43-.06.55-.32.3-.66.66-1.3.98-1.96.19-.38.46-.55.9-.55h7.62c.41 0 .68.16.87.53.33.68.69 1.35 1.02 2.03.1.21.23.28.46.28h4.42c.8 0 1.02.22 1.02 1.03v13.34c0 1.9-1.14 3.03-3.04 3.03h-9.5zm-9.2-1.44H1112.7c1.1 0 1.59-.5 1.59-1.6v-12.46-.42h-20.32v14.48zm14.36-15.99c-.22-.44-.42-.84-.64-1.23-.04-.08-.18-.13-.28-.13h-6.6c-.08 0-.22.02-.26.08l-.66 1.28h8.44zm2.07 8.72a6.31 6.31 0 0 1-6.29 6.32 6.3 6.3 0 0 1-.02-12.62 6.32 6.32 0 0 1 6.3 6.3zm-1.45 0a4.86 4.86 0 0 0-4.86-4.85 4.86 4.86 0 1 0 .02 9.72 4.84 4.84 0 0 0 4.84-4.87zm2.8-6.07c.39 0 .72.33.72.72 0 .37-.36.72-.73.71a.75.75 0 0 1-.7-.7.72.72 0 0 1 .7-.73zm-11.24 6.04a3.62 3.62 0 0 1 3.64-3.57 3.63 3.63 0 0 1-.08 7.23 3.63 3.63 0 0 1-3.56-3.66zm3.6-2.12a2.17 2.17 0 0 0 .02 4.34 2.17 2.17 0 0 0-.02-4.34z"/></defs><g><g transform="translate(-1092 -440)"><use fill="#fefefe" xlink:href="#m032a"/></g></g></svg>